<svg width="48" height="48" viewBox="0 0 48 48" fill="none" xmlns="http://www.w3.org/2000/svg">
  <rect width="48" height="48" rx="8" fill="#00D632"/>
  <path d="M24 16C20.686 16 18 18.686 18 22C18 25.314 20.686 28 24 28C27.314 28 30 25.314 30 22C30 18.686 27.314 16 24 16ZM24 26C21.791 26 20 24.209 20 22C20 19.791 21.791 18 24 18C26.209 18 28 19.791 28 22C28 24.209 26.209 26 24 26Z" fill="white"/>
  <path d="M24 20C22.895 20 22 20.895 22 22C22 23.105 22.895 24 24 24C25.105 24 26 23.105 26 22C26 20.895 25.105 20 24 20Z" fill="white"/>
</svg>
