<svg width="48" height="48" viewBox="0 0 48 48" fill="none" xmlns="http://www.w3.org/2000/svg">
  <rect width="48" height="48" rx="8" fill="#0070BA"/>
  <path d="M20 16C20 16 20.5 16 21 16C21.5 16 22 16.5 22 17C22 17.5 21.5 18 21 18H20V16Z" fill="white"/>
  <path d="M18 20C18 20 18.5 20 19 20C19.5 20 20 20.5 20 21C20 21.5 19.5 22 19 22H18V20Z" fill="white"/>
  <path d="M16 24C16 24 16.5 24 17 24C17.5 24 18 24.5 18 25C18 25.5 17.5 26 17 26H16V24Z" fill="white"/>
  <path d="M14 28C14 28 14.5 28 15 28C15.5 28 16 28.5 16 29C16 29.5 15.5 30 15 30H14V28Z" fill="white"/>
  <path d="M12 32C12 32 12.5 32 13 32C13.5 32 14 32.5 14 33C14 33.5 13.5 34 13 34H12V32Z" fill="white"/>
</svg>
